<svg id="visual" viewBox="0 0 900 600" width="900" height="600" xmlns="http://www.w3.org/2000/svg" xmlns:xlink="http://www.w3.org/1999/xlink" version="1.1"><path d="M0 121L13.7 117C27.3 113 54.7 105 82 106C109.3 107 136.7 117 163.8 115C191 113 218 99 245.2 93C272.3 87 299.7 89 327 86C354.3 83 381.7 75 409 78C436.3 81 463.7 95 491 115C518.3 135 545.7 161 573 164C600.3 167 627.7 147 654.8 143C682 139 709 151 736.2 157C763.3 163 790.7 163 818 154C845.3 145 872.7 127 886.3 118L900 109L900 0L886.3 0C872.7 0 845.3 0 818 0C790.7 0 763.3 0 736.2 0C709 0 682 0 654.8 0C627.7 0 600.3 0 573 0C545.7 0 518.3 0 491 0C463.7 0 436.3 0 409 0C381.7 0 354.3 0 327 0C299.7 0 272.3 0 245.2 0C218 0 191 0 163.8 0C136.7 0 109.3 0 82 0C54.7 0 27.3 0 13.7 0L0 0Z" fill="#6198ff"></path><path d="M0 313L13.7 299C27.3 285 54.7 257 82 257C109.3 257 136.7 285 163.8 285C191 285 218 257 245.2 258C272.3 259 299.7 289 327 306C354.3 323 381.7 327 409 326C436.3 325 463.7 319 491 327C518.3 335 545.7 357 573 351C600.3 345 627.7 311 654.8 307C682 303 709 329 736.2 332C763.3 335 790.7 315 818 312C845.3 309 872.7 323 886.3 330L900 337L900 107L886.3 116C872.7 125 845.3 143 818 152C790.7 161 763.3 161 736.2 155C709 149 682 137 654.8 141C627.7 145 600.3 165 573 162C545.7 159 518.3 133 491 113C463.7 93 436.3 79 409 76C381.7 73 354.3 81 327 84C299.7 87 272.3 85 245.2 91C218 97 191 111 163.8 113C136.7 115 109.3 105 82 104C54.7 103 27.3 111 13.7 115L0 119Z" fill="#3c80ff"></path><path d="M0 499L13.7 485C27.3 471 54.7 443 82 432C109.3 421 136.7 427 163.8 432C191 437 218 441 245.2 436C272.3 431 299.7 417 327 420C354.3 423 381.7 443 409 446C436.3 449 463.7 435 491 444C518.3 453 545.7 485 573 493C600.3 501 627.7 485 654.8 478C682 471 709 473 736.2 481C763.3 489 790.7 503 818 500C845.3 497 872.7 477 886.3 467L900 457L900 335L886.3 328C872.7 321 845.3 307 818 310C790.7 313 763.3 333 736.2 330C709 327 682 301 654.8 305C627.7 309 600.3 343 573 349C545.7 355 518.3 333 491 325C463.7 317 436.3 323 409 324C381.7 325 354.3 321 327 304C299.7 287 272.3 257 245.2 256C218 255 191 283 163.8 283C136.7 283 109.3 255 82 255C54.7 255 27.3 283 13.7 297L0 311Z" fill="#0066ff"></path><path d="M0 541L13.7 532C27.3 523 54.7 505 82 503C109.3 501 136.7 515 163.8 525C191 535 218 541 245.2 532C272.3 523 299.7 499 327 500C354.3 501 381.7 527 409 535C436.3 543 463.7 533 491 534C518.3 535 545.7 547 573 553C600.3 559 627.7 559 654.8 552C682 545 709 531 736.2 530C763.3 529 790.7 541 818 540C845.3 539 872.7 525 886.3 518L900 511L900 455L886.3 465C872.7 475 845.3 495 818 498C790.7 501 763.3 487 736.2 479C709 471 682 469 654.8 476C627.7 483 600.3 499 573 491C545.7 483 518.3 451 491 442C463.7 433 436.3 447 409 444C381.7 441 354.3 421 327 418C299.7 415 272.3 429 245.2 434C218 439 191 435 163.8 430C136.7 425 109.3 419 82 430C54.7 441 27.3 469 13.7 483L0 497Z" fill="#0059dd"></path><path d="M0 601L13.7 601C27.3 601 54.7 601 82 601C109.3 601 136.7 601 163.8 601C191 601 218 601 245.2 601C272.3 601 299.7 601 327 601C354.3 601 381.7 601 409 601C436.3 601 463.7 601 491 601C518.3 601 545.7 601 573 601C600.3 601 627.7 601 654.8 601C682 601 709 601 736.2 601C763.3 601 790.7 601 818 601C845.3 601 872.7 601 886.3 601L900 601L900 509L886.3 516C872.7 523 845.3 537 818 538C790.7 539 763.3 527 736.2 528C709 529 682 543 654.8 550C627.7 557 600.3 557 573 551C545.7 545 518.3 533 491 532C463.7 531 436.3 541 409 533C381.7 525 354.3 499 327 498C299.7 497 272.3 521 245.2 530C218 539 191 533 163.8 523C136.7 513 109.3 499 82 501C54.7 503 27.3 521 13.7 530L0 539Z" fill="#004cbb"></path></svg>