<svg id="visual" viewBox="0 0 900 600" width="900" height="600" xmlns="http://www.w3.org/2000/svg" xmlns:xlink="http://www.w3.org/1999/xlink" version="1.1"><path d="M0 146L30 135.3C60 124.7 120 103.3 180 103.7C240 104 300 126 360 127.3C420 128.7 480 109.3 540 93.7C600 78 660 66 720 69.8C780 73.7 840 93.3 870 103.2L900 113L900 0L870 0C840 0 780 0 720 0C660 0 600 0 540 0C480 0 420 0 360 0C300 0 240 0 180 0C120 0 60 0 30 0L0 0Z" fill="#004cbb" stroke-linecap="round" stroke-linejoin="miter"></path></svg>