<svg id="visual" viewBox="0 0 900 600" width="900" height="600" xmlns="http://www.w3.org/2000/svg" xmlns:xlink="http://www.w3.org/1999/xlink" version="1.1"><g transform="translate(487.1025509165461 250.4378992194516)"><path d="M113.1 -185.5C149.2 -175 182.8 -150 204.4 -116.7C226 -83.3 235.5 -41.7 248.8 7.7C262.1 57 279.1 114 258.7 149.4C238.3 184.7 180.4 198.5 131 226.3C81.7 254.1 40.8 296.1 1.3 293.9C-38.3 291.7 -76.7 245.5 -129.6 219.7C-182.6 194 -250.2 188.7 -293.6 155.5C-336.9 122.3 -355.9 61.2 -331.8 13.9C-307.7 -33.3 -240.5 -66.7 -197.8 -101C-155.1 -135.4 -137.1 -170.7 -108.2 -185.3C-79.3 -199.9 -39.7 -193.7 -0.6 -192.7C38.5 -191.7 77 -195.9 113.1 -185.5" fill="#ffffff"></path></g></svg>