<svg id="visual" viewBox="0 0 900 600" width="900" height="600" xmlns="http://www.w3.org/2000/svg" xmlns:xlink="http://www.w3.org/1999/xlink" version="1.1"><rect x="0" y="0" width="900" height="600" fill="#001220"></rect><path d="M0 428L21.5 424.2C43 420.3 86 412.7 128.8 410.5C171.7 408.3 214.3 411.7 257.2 415.2C300 418.7 343 422.3 385.8 417C428.7 411.7 471.3 397.3 514.2 386.3C557 375.3 600 367.7 642.8 376.3C685.7 385 728.3 410 771.2 413.3C814 416.7 857 398.3 878.5 389.2L900 380L900 601L878.5 601C857 601 814 601 771.2 601C728.3 601 685.7 601 642.8 601C600 601 557 601 514.2 601C471.3 601 428.7 601 385.8 601C343 601 300 601 257.2 601C214.3 601 171.7 601 128.8 601C86 601 43 601 21.5 601L0 601Z" fill="#fa7268"></path><path d="M0 400L21.5 408C43 416 86 432 128.8 436.2C171.7 440.3 214.3 432.7 257.2 425.5C300 418.3 343 411.7 385.8 419.2C428.7 426.7 471.3 448.3 514.2 459.3C557 470.3 600 470.7 642.8 472.2C685.7 473.7 728.3 476.3 771.2 464.5C814 452.7 857 426.3 878.5 413.2L900 400L900 601L878.5 601C857 601 814 601 771.2 601C728.3 601 685.7 601 642.8 601C600 601 557 601 514.2 601C471.3 601 428.7 601 385.8 601C343 601 300 601 257.2 601C214.3 601 171.7 601 128.8 601C86 601 43 601 21.5 601L0 601Z" fill="#ef5f67"></path><path d="M0 461L21.5 457.2C43 453.3 86 445.7 128.8 446C171.7 446.3 214.3 454.7 257.2 454.8C300 455 343 447 385.8 442.7C428.7 438.3 471.3 437.7 514.2 438.8C557 440 600 443 642.8 451.3C685.7 459.7 728.3 473.3 771.2 474.7C814 476 857 465 878.5 459.5L900 454L900 601L878.5 601C857 601 814 601 771.2 601C728.3 601 685.7 601 642.8 601C600 601 557 601 514.2 601C471.3 601 428.7 601 385.8 601C343 601 300 601 257.2 601C214.3 601 171.7 601 128.8 601C86 601 43 601 21.5 601L0 601Z" fill="#e34c67"></path><path d="M0 520L21.5 522.7C43 525.3 86 530.7 128.8 530.7C171.7 530.7 214.3 525.3 257.2 517.8C300 510.3 343 500.7 385.8 497.8C428.7 495 471.3 499 514.2 503.2C557 507.3 600 511.7 642.8 513.2C685.7 514.7 728.3 513.3 771.2 517.8C814 522.3 857 532.7 878.5 537.8L900 543L900 601L878.5 601C857 601 814 601 771.2 601C728.3 601 685.7 601 642.8 601C600 601 557 601 514.2 601C471.3 601 428.7 601 385.8 601C343 601 300 601 257.2 601C214.3 601 171.7 601 128.8 601C86 601 43 601 21.5 601L0 601Z" fill="#d53867"></path><path d="M0 556L21.5 555.3C43 554.7 86 553.3 128.8 552.2C171.7 551 214.3 550 257.2 552.8C300 555.7 343 562.3 385.8 558.5C428.7 554.7 471.3 540.3 514.2 541C557 541.7 600 557.3 642.8 557.2C685.7 557 728.3 541 771.2 541.2C814 541.3 857 557.7 878.5 565.8L900 574L900 601L878.5 601C857 601 814 601 771.2 601C728.3 601 685.7 601 642.8 601C600 601 557 601 514.2 601C471.3 601 428.7 601 385.8 601C343 601 300 601 257.2 601C214.3 601 171.7 601 128.8 601C86 601 43 601 21.5 601L0 601Z" fill="#c62368"></path></svg>