<svg id="visual" viewBox="0 0 900 600" width="900" height="600" xmlns="http://www.w3.org/2000/svg" xmlns:xlink="http://www.w3.org/1999/xlink" version="1.1"><path d="M0 170L21.5 173.8C43 177.7 86 185.3 128.8 187.5C171.7 189.7 214.3 186.3 257.2 182.8C300 179.3 343 175.7 385.8 181C428.7 186.3 471.3 200.7 514.2 211.7C557 222.7 600 230.3 642.8 221.7C685.7 213 728.3 188 771.2 184.7C814 181.3 857 199.7 878.5 208.8L900 218L900 0L878.5 0C857 0 814 0 771.2 0C728.3 0 685.7 0 642.8 0C600 0 557 0 514.2 0C471.3 0 428.7 0 385.8 0C343 0 300 0 257.2 0C214.3 0 171.7 0 128.8 0C86 0 43 0 21.5 0L0 0Z" fill="#fa7268"></path><path d="M0 198L21.5 190C43 182 86 166 128.8 161.8C171.7 157.7 214.3 165.3 257.2 172.5C300 179.7 343 186.3 385.8 178.8C428.7 171.3 471.3 149.7 514.2 138.7C557 127.7 600 127.3 642.8 125.8C685.7 124.3 728.3 121.7 771.2 133.5C814 145.3 857 171.7 878.5 184.8L900 198L900 0L878.5 0C857 0 814 0 771.2 0C728.3 0 685.7 0 642.8 0C600 0 557 0 514.2 0C471.3 0 428.7 0 385.8 0C343 0 300 0 257.2 0C214.3 0 171.7 0 128.8 0C86 0 43 0 21.5 0L0 0Z" fill="#ef5f67"></path><path d="M0 137L21.5 140.8C43 144.7 86 152.3 128.8 152C171.7 151.7 214.3 143.3 257.2 143.2C300 143 343 151 385.8 155.3C428.7 159.7 471.3 160.3 514.2 159.2C557 158 600 155 642.8 146.7C685.7 138.3 728.3 124.7 771.2 123.3C814 122 857 133 878.5 138.5L900 144L900 0L878.5 0C857 0 814 0 771.2 0C728.3 0 685.7 0 642.8 0C600 0 557 0 514.2 0C471.3 0 428.7 0 385.8 0C343 0 300 0 257.2 0C214.3 0 171.7 0 128.8 0C86 0 43 0 21.5 0L0 0Z" fill="#e34c67"></path><path d="M0 78L21.5 75.3C43 72.7 86 67.3 128.8 67.3C171.7 67.3 214.3 72.7 257.2 80.2C300 87.7 343 97.3 385.8 100.2C428.7 103 471.3 99 514.2 94.8C557 90.7 600 86.3 642.8 84.8C685.7 83.3 728.3 84.7 771.2 80.2C814 75.7 857 65.3 878.5 60.2L900 55L900 0L878.5 0C857 0 814 0 771.2 0C728.3 0 685.7 0 642.8 0C600 0 557 0 514.2 0C471.3 0 428.7 0 385.8 0C343 0 300 0 257.2 0C214.3 0 171.7 0 128.8 0C86 0 43 0 21.5 0L0 0Z" fill="#d53867"></path><path d="M0 42L21.5 42.7C43 43.3 86 44.7 128.8 45.8C171.7 47 214.3 48 257.2 45.2C300 42.3 343 35.7 385.8 39.5C428.7 43.3 471.3 57.7 514.2 57C557 56.3 600 40.7 642.8 40.8C685.7 41 728.3 57 771.2 56.8C814 56.7 857 40.3 878.5 32.2L900 24L900 0L878.5 0C857 0 814 0 771.2 0C728.3 0 685.7 0 642.8 0C600 0 557 0 514.2 0C471.3 0 428.7 0 385.8 0C343 0 300 0 257.2 0C214.3 0 171.7 0 128.8 0C86 0 43 0 21.5 0L0 0Z" fill="#c62368"></path></svg>